<svg height="512pt" viewBox="0 -91 512.001 512" width="512pt" xmlns="http://www.w3.org/2000/svg"><path d="m225.09375 185.625h61.8125v92.8125h-61.8125zm0 0" fill="#ffbd54"/><path d="m256 185.625h30.90625v92.8125h-30.90625zm0 0" fill="#ff943d"/><path d="m240.546875 15.46875h30.90625v61.875h-30.90625zm0 0" fill="#ffbd54"/><path d="m483.539062 199.042969c.652344 5.074219-1.15625 9.746093-4.402343 12.992187-2.792969 2.796875-6.65625 4.527344-10.917969 4.527344h-423.980469c-8.5 0-15.90625-6.953125-15.910156-15.464844 0-4.28125 1.730469-8.140625 4.535156-10.945312 2.792969-2.792969 6.65625-4.527344 10.917969-4.527344 11.949219 0 21.636719-9.695312 21.636719-21.65625 0-56.382812 45.660156-102.09375 101.988281-102.09375h177.191406c56.324219 0 101.988282 45.710938 101.988282 102.09375v.410156c0 11.734375 9.5 21.246094 21.222656 21.246094 7.824218 0 14.730468 5.652344 15.730468 13.417969zm0 0" fill="#ffd659"/><path d="m483.539062 199.042969c-1-7.765625-7.90625-13.417969-15.730468-13.417969-11.722656 0-21.226563-9.511719-21.226563-21.246094v-.410156c0-56.386719-45.660156-102.09375-101.988281-102.09375h-30.902344c56.324219 0 101.988282 45.707031 101.988282 102.09375v.410156c0 11.734375 9.5 21.246094 21.222656 21.246094 7.824218 0 14.730468 5.652344 15.730468 13.417969.652344 5.074219-1.15625 9.746093-4.402343 12.992187-2.789063 2.796875-6.652344 4.527344-10.917969 4.527344h30.90625c4.261719 0 8.125-1.730469 10.917969-4.527344 3.246093-3.246094 5.054687-7.917968 4.402343-12.992187zm0 0" fill="#ffbd54"/><path d="m474.398438 314.53125h-436.796876v-36.109375c0-17.078125 13.84375-30.921875 30.921876-30.921875h374.953124c17.078126 0 30.921876 13.84375 30.921876 30.921875zm0 0" fill="#ff2c5c"/><path d="m443.492188 247.5h-30.902344c17.066406 0 30.902344 13.851562 30.902344 30.9375v36.09375h30.90625v-36.09375c0-17.085938-13.835938-30.9375-30.90625-30.9375zm0 0" fill="#e62753"/><path d="m295.140625 30.9375h-78.28125c-8.539063 0-15.460937-6.921875-15.460937-15.460938v-.015624c0-8.539063 6.921874-15.460938 15.460937-15.460938h78.28125c8.539063 0 15.460937 6.921875 15.460937 15.460938v.015624c0 8.539063-6.921874 15.460938-15.460937 15.460938zm0 0" fill="#ffd659"/><path d="m295.148438 0h-30.90625c8.535156 0 15.453124 6.925781 15.453124 15.46875s-6.917968 15.46875-15.453124 15.46875h30.90625c8.53125 0 15.453124-6.925781 15.453124-15.46875s-6.921874-15.46875-15.453124-15.46875zm0 0" fill="#ffbd54"/><path d="m369.320312 178.125h-226.640624c-4.140626 0-7.5 3.359375-7.5 7.5s3.359374 7.5 7.5 7.5h226.640624c4.140626 0 7.5-3.359375 7.5-7.5s-3.359374-7.5-7.5-7.5zm0 0" fill="#ff943d"/><path d="m496.539062 330h-481.078124c-8.539063 0-15.460938-6.921875-15.460938-15.460938v-.015624c0-8.539063 6.921875-15.460938 15.460938-15.460938h481.078124c8.539063 0 15.460938 6.921875 15.460938 15.460938v.015624c0 8.539063-6.921875 15.460938-15.460938 15.460938zm0 0" fill="#b0693c"/><path d="m496.546875 299.0625h-30.90625c8.535156 0 15.453125 6.925781 15.453125 15.46875s-6.917969 15.46875-15.453125 15.46875h30.90625c8.535156 0 15.453125-6.925781 15.453125-15.46875s-6.917969-15.46875-15.453125-15.46875zm0 0" fill="#9c5d35"/></svg>