<svg id="Layer_2" data-name="Layer 2" xmlns="http://www.w3.org/2000/svg" viewBox="0 0 73.54 52.42"><defs><style>.cls-1{fill:#fee35e;}.cls-2{fill:#1179bf;}</style></defs><polygon class="cls-1" points="13.6 13.13 13.6 40.37 0 26.73 13.6 13.13"/><polygon class="cls-1" points="32.15 5.45 21.39 5.45 26.77 0.07 32.15 5.45"/><path class="cls-2" d="M315.24,47.07l25.69,25.69L314.2,99.49,309.75,95s13.84-13.76,21.63-21.55c-5.89-5.9-21.31-21.25-21.31-21.25Z" transform="translate(-267.39 -47.07)"/><path class="cls-1" d="M288.94,59.86h18l12.91,12.9L293.09,99.49,288.57,95l.37-16.29s9.39-.15,14.66,0c1,0,1.6-.31,1.61-1.16,0-1.74,0-3.27,0-5,0-.82-.45-1.16-1.38-1.16-5.21,0-14.89,0-14.89,0Z" transform="translate(-267.39 -47.07)"/></svg>