<svg xmlns="http://www.w3.org/2000/svg" viewBox="0 0 286.78 53.01"><defs><style>.cls-1{fill:#1479bf;}.cls-2{fill:#787878;}.cls-3{fill:#fee35e;}.cls-4{fill:#1179bf;}</style></defs><g id="Layer_2" data-name="Layer 2"><path class="cls-1" d="M268,30.4a.64.64,0,0,1,.64-.64h13.84a.65.65,0,0,1,.65.64v2.79a.66.66,0,0,1-.65.65H272.46v6.39h8.39a.67.67,0,0,1,.65.64v2.79a.68.68,0,0,1-.65.65h-8.39v8.6a.67.67,0,0,1-.65.64h-3.13a.64.64,0,0,1-.64-.64Z" transform="translate(-179.07 -29.42)"/><path class="cls-1" d="M297.72,29.42a12.24,12.24,0,1,1-12.21,12.27A12.21,12.21,0,0,1,297.72,29.42Zm0,20a7.82,7.82,0,1,0-7.79-7.78A7.84,7.84,0,0,0,297.72,49.47Z" transform="translate(-179.07 -29.42)"/><path class="cls-1" d="M314.41,30.4a.64.64,0,0,1,.65-.64h9.72a7.36,7.36,0,0,1,7.41,7.31,7.5,7.5,0,0,1-5,6.86l4.66,8.64a.64.64,0,0,1-.58,1h-3.57a.59.59,0,0,1-.54-.3l-4.52-9h-3.78v8.67a.66.66,0,0,1-.64.64h-3.13a.64.64,0,0,1-.65-.64Zm10,10.2a3.46,3.46,0,0,0,3.36-3.47,3.37,3.37,0,0,0-3.36-3.29h-5.54V40.6Z" transform="translate(-179.07 -29.42)"/><path class="cls-1" d="M337.06,30.4a.64.64,0,0,1,.64-.64h13.84a.64.64,0,0,1,.64.64v2.79a.65.65,0,0,1-.64.65H341.48v5.57h8.39a.68.68,0,0,1,.65.65v2.82a.65.65,0,0,1-.65.64h-8.39v5.95h10.06a.65.65,0,0,1,.64.65v2.79a.64.64,0,0,1-.64.64H337.7a.64.64,0,0,1-.64-.64Z" transform="translate(-179.07 -29.42)"/><path class="cls-1" d="M357.05,30.4a.64.64,0,0,1,.64-.64h13.84a.64.64,0,0,1,.65.64v2.79a.65.65,0,0,1-.65.65H361.47v6.39h8.4a.66.66,0,0,1,.64.64v2.79a.67.67,0,0,1-.64.65h-8.4v8.6a.67.67,0,0,1-.65.64h-3.13a.64.64,0,0,1-.64-.64Z" transform="translate(-179.07 -29.42)"/><path class="cls-1" d="M376.22,30.4a.65.65,0,0,1,.65-.64h9.72A7.36,7.36,0,0,1,394,37.07a7.5,7.5,0,0,1-5,6.86l4.66,8.64a.64.64,0,0,1-.58,1h-3.57a.59.59,0,0,1-.54-.3l-4.52-9h-3.78v8.67a.66.66,0,0,1-.64.64h-3.13a.65.65,0,0,1-.65-.64Zm10,10.2a3.46,3.46,0,0,0,3.36-3.47,3.37,3.37,0,0,0-3.36-3.29h-5.54V40.6Z" transform="translate(-179.07 -29.42)"/><path class="cls-1" d="M409.37,29.42a12.24,12.24,0,1,1-12.2,12.27A12.21,12.21,0,0,1,409.37,29.42Zm0,20a7.82,7.82,0,1,0-7.78-7.78A7.83,7.83,0,0,0,409.37,49.47Z" transform="translate(-179.07 -29.42)"/><path class="cls-1" d="M426.07,30a.63.63,0,0,1,.64-.61h.85l14.15,15h0v-14a.64.64,0,0,1,.65-.64h3.12a.67.67,0,0,1,.65.64V53.28a.64.64,0,0,1-.65.61h-.81l-14.21-15.6h0V52.91a.64.64,0,0,1-.64.64h-3.1a.66.66,0,0,1-.64-.64Z" transform="translate(-179.07 -29.42)"/><path class="cls-1" d="M455.54,33.84h-5.2a.65.65,0,0,1-.64-.65V30.4a.64.64,0,0,1,.64-.64H465.2a.65.65,0,0,1,.65.64v2.79a.66.66,0,0,1-.65.65H460V52.91a.67.67,0,0,1-.65.64h-3.16a.67.67,0,0,1-.65-.64Z" transform="translate(-179.07 -29.42)"/><path class="cls-2" d="M275.81,63.09a8.93,8.93,0,0,1,6.32,2.42.33.33,0,0,1,0,.47l-.42.44c-.16.16-.28.13-.44,0a8.16,8.16,0,1,0-5.49,14.24,8.24,8.24,0,0,0,5.49-2.18.32.32,0,0,1,.41,0l.45.44a.3.3,0,0,1,0,.44,9,9,0,0,1-6.35,2.52,9.36,9.36,0,1,1,0-18.72Z" transform="translate(-179.07 -29.42)"/><path class="cls-2" d="M298.46,63.09a9.36,9.36,0,1,1-9.36,9.39A9.35,9.35,0,0,1,298.46,63.09Zm0,17.58a8.22,8.22,0,1,0-8.22-8.19A8.2,8.2,0,0,0,298.46,80.67Z" transform="translate(-179.07 -29.42)"/><path class="cls-2" d="M316.16,63.43a.36.36,0,0,1,.39-.34H317l12.48,16.25h0V63.69a.35.35,0,0,1,.34-.34h.52a.35.35,0,0,1,.34.34V81.48c0,.23-.21.33-.42.33h-.34s-.23-.07-12.58-16.4h0V81.22a.33.33,0,0,1-.33.33h-.5a.34.34,0,0,1-.34-.33Z" transform="translate(-179.07 -29.42)"/><path class="cls-2" d="M339.23,79.14l.23-.32c.18-.2.36-.28.57-.1a7.6,7.6,0,0,0,4.81,2c2.37,0,4.37-1.58,4.37-3.48,0-2.32-1.9-3.36-5-4.42s-5-2.13-5-5.12c0-2,1.56-4.61,5.61-4.61a8.54,8.54,0,0,1,4.48,1.33.38.38,0,0,1,.1.55,2,2,0,0,0-.21.33.37.37,0,0,1-.57.13,7.66,7.66,0,0,0-3.82-1.22c-3.2,0-4.4,2-4.4,3.46,0,2.21,1.69,3.17,4.32,4,3.56,1.22,5.82,2.47,5.82,5.49,0,2.6-2.67,4.62-5.66,4.62a8.5,8.5,0,0,1-5.52-2.13C339.15,79.55,339,79.42,339.23,79.14Z" transform="translate(-179.07 -29.42)"/><path class="cls-2" d="M358.34,63.69a.34.34,0,0,1,.33-.34h.55a.35.35,0,0,1,.34.34v11.1c0,3.36,2.1,5.83,5.56,5.83s5.62-2.45,5.62-5.8V63.69c0-.21.1-.34.36-.34h.52a.35.35,0,0,1,.34.34V74.92a6.81,6.81,0,1,1-13.62,0Z" transform="translate(-179.07 -29.42)"/><path class="cls-2" d="M381.37,63.69a.35.35,0,0,1,.34-.34h.57a.34.34,0,0,1,.31.34V80.46h8.3c.31,0,.34.16.34.34v.47a.3.3,0,0,1-.34.28h-9.18a.34.34,0,0,1-.34-.33Z" transform="translate(-179.07 -29.42)"/><path class="cls-2" d="M399.81,64.47h-5c-.26,0-.34-.16-.34-.39v-.39a.33.33,0,0,1,.34-.34H406a.33.33,0,0,1,.34.34v.44a.33.33,0,0,1-.34.34h-5V81.22c0,.18-.16.33-.42.33h-.47a.33.33,0,0,1-.33-.33Z" transform="translate(-179.07 -29.42)"/><path class="cls-2" d="M413.43,63.69a.35.35,0,0,1,.34-.34h.57a.35.35,0,0,1,.34.34V81.22a.35.35,0,0,1-.37.33h-.54a.34.34,0,0,1-.34-.33Z" transform="translate(-179.07 -29.42)"/><path class="cls-2" d="M424.3,63.43a.36.36,0,0,1,.39-.34h.44l12.48,16.25h0V63.69a.34.34,0,0,1,.33-.34h.52a.34.34,0,0,1,.34.34V81.48c0,.23-.21.33-.41.33h-.34s-.24-.07-12.59-16.4h0V81.22a.34.34,0,0,1-.34.33h-.5a.33.33,0,0,1-.33-.33Z" transform="translate(-179.07 -29.42)"/><path class="cls-2" d="M456.56,63.09a8.92,8.92,0,0,1,6.3,2.42.33.33,0,0,1,0,.47,5.89,5.89,0,0,1-.41.44c-.16.18-.29.16-.45,0a8,8,0,0,0-5.48-2.18,8.19,8.19,0,0,0,0,16.38A9.75,9.75,0,0,0,462,79.19V74.3H457.5c-.29,0-.34-.1-.34-.34v-.52c0-.21,0-.31.34-.31h5.33a.35.35,0,0,1,.34.31v6a.73.73,0,0,1-.37.68,12,12,0,0,1-6.24,1.66,9.36,9.36,0,1,1,0-18.72Z" transform="translate(-179.07 -29.42)"/><polygon class="cls-3" points="13.6 13.72 13.6 40.96 0 27.32 13.6 13.72"/><polygon class="cls-3" points="32.15 6.04 21.39 6.04 26.77 0.66 32.15 6.04"/><path class="cls-4" d="M226.91,30l25.7,25.69L225.88,82.43,221.42,78s13.84-13.76,21.64-21.56c-5.89-5.89-21.31-21.24-21.31-21.24Z" transform="translate(-179.07 -29.42)"/><path class="cls-3" d="M200.62,42.79h18l12.9,12.91L204.76,82.43l-4.51-4.51.37-16.3s9.38-.14,14.65,0c1,0,1.61-.3,1.61-1.16,0-1.73,0-3.27,0-5,0-.82-.45-1.17-1.37-1.16-5.22,0-14.89,0-14.89,0Z" transform="translate(-179.07 -29.42)"/></g></svg>